# xmcd CD database file
#
# Track frame offsets:
#	150
#	17584
#	34915
#	50611
#	69779
#	89303
#	108117
#	124627
#	142659
#	159167
#	177909
#	191503
#	206791
#	222620
#	240615
#	258656
#	276480
#	291500
#
# Disc length: 4119 seconds
#
# Revision: 2
# Processed by: cddbd v1.5.2PL0 Copyright (c) Steve Scherf et al.
# Submitted via: CDex 1.51
#
DISCID=09101512
DTITLE=Various Artist - RC90
DYEAR=2005
DGENRE=Country
TTITLE0=Toby Keith - As Good As I Once Was
TTITLE1=Faith Hill - Mississippi
TTITLE2=Kenny Chesney - Keg In The Closet
TTITLE3=Rascal Flatts - Fast Cars and Freedom
TTITLE4=George Strait - You'll Be There
TTITLE5=Brad Paisley - Alcohol
TTITLE6=SHeDAISY - Don't Worry 'Bout A Thing
TTITLE7=Aaron Lines - Waitin' On The Wonderful
TTITLE8=Sugarland - Something More
TTITLE9=Bobby Pinson - Don't Ask Me How I Know
TTITLE10=Alan Jackson - The Talkin' Song Repair Blues
TTITLE11=Blake Shelton - Goodbye Time
TTITLE12=Phil Vassar - I'll Take That As A Yes (The Hot Tub Song)
TTITLE13=Terri Clark - The World Needs A Drink
TTITLE14=Darryl Worley - If Something Should Happen
TTITLE15=Reba McEntire - My Sister
TTITLE16=Buddy Jewell - If She Were Any Other Woman
TTITLE17=Travis Tritt - I See Me
EXTD=YEAR: 2005
EXTT0=
EXTT1=
EXTT2=
EXTT3=
EXTT4=
EXTT5=
EXTT6=
EXTT7=
EXTT8=
EXTT9=
EXTT10=
EXTT11=
EXTT12=
EXTT13=
EXTT14=
EXTT15=
EXTT16=
EXTT17=
PLAYORDER=
